<?xml version="1.0" encoding="utf-8"?>
<svg xmlns="http://www.w3.org/2000/svg" viewBox="0 0 263 300">
  <path fill="currentColor" d="M262.8,81c0-0.2,0-0.4,0-0.7c0-0.6-0.1-1.2-0.2-1.8c-0.5-3.2-2.5-5.9-5.3-7.6c-0.3-0.1-0.5-0.3-0.8-0.4
    L137,1.5c-3.4-1.9-7.5-1.9-10.8,0L5.6,71c-3.4,1.9-5.4,5.5-5.4,9.4L0.1,219.5c0,3.9,2.1,7.4,5.4,9.4L126,298.5
    c1.6,1,3.5,1.5,5.4,1.5h0.2c1.9,0,3.8-0.5,5.4-1.5l120.5-69.6c3.4-1.9,5.4-5.5,5.4-9.4L262.8,81z"/>
  <polygon fill="currentColor" points="239.6,87.6 239.6,212.4 131.5,274.8 131.5,150"/>
  <polygon fill="currentColor" points="239.6,87.6 131.5,150 23.4,87.6 131.5,25.2"/>
  <polygon fill="currentColor" points="131.5,150 131.5,274.8 23.4,212.4 23.4,87.6"/>
</svg>