<?xml version="1.0" encoding="utf-8"?>
<svg xmlns="http://www.w3.org/2000/svg" viewBox="-9.209 -19.954 129 76">
  <path fill="currentColor" d="M113.838,42.358H99.139L86.808,0.061h13.292L113.838,42.358z"/>
  <path fill="currentColor" d="M0,0.121h14.699l5.94,20.158L27.419,0h12.12l6.779,20.279l5.94-20.158h14.459L52.978,42.418h-12.24
    l-7.379-20.879l-7.38,20.879h-12.24L0,0.121z"/>
  <path fill="currentColor" d="M0,0.062h14.699l12.332,42.297H13.739L0,0.062z"/>
  <path fill="currentColor" d="M27.292,42.358H14L26.332,0.062h14.699L27.292,42.358z"/>
  <path fill="currentColor" d="M26.388,0.062h14.699l12.332,42.297H40.127L26.388,0.062z"/>
  <path fill="currentColor" d="M53.195,42.358H39.903L52.235,0.062h14.699L53.195,42.358z"/>
  <path fill="currentColor" d="M87.936,42.358H73.236L60.905,0.061h13.292L87.936,42.358z"/>
  <path fill="currentColor" d="M60.644,0.061h13.292L61.604,42.358H46.904L60.644,0.061z"/>
  <path fill="currentColor" d="M87.031,0.061h13.292L87.991,42.358H73.292L87.031,0.061z"/>
</svg>